<?xml version="1.0" standalone="no"?><!DOCTYPE svg PUBLIC "-//W3C//DTD SVG 1.1//EN" "http://www.w3.org/Graphics/SVG/1.1/DTD/svg11.dtd"><svg t="1752545736603" class="icon" viewBox="0 0 1024 1024" version="1.1" xmlns="http://www.w3.org/2000/svg" p-id="8179" xmlns:xlink="http://www.w3.org/1999/xlink" width="256" height="256"><path d="M873.984 64c46.528 0 83.392 36.864 83.392 83.328 0 46.528-36.864 83.392-83.392 83.392a84.224 84.224 0 0 1-76.992-51.328H224.384c-8 19.2-24.064 36.864-44.928 44.928v575.36c19.264 8.064 36.928 24.064 44.928 44.928h88.192c17.664 0 32.128 14.4 32.128 32 0 17.664-14.464 32.128-32.128 32.128H224.384c-11.2 30.4-41.664 51.264-76.992 51.264A82.816 82.816 0 0 1 64 876.672c0-35.264 20.864-64.128 51.328-76.992v-575.36C84.864 213.056 64 182.592 64 147.328 64 100.864 100.864 64 147.392 64c33.664 0 64.192 20.864 76.992 51.264h572.608c11.2-30.4 41.728-51.264 76.992-51.264zM434.496 753.28l115.52 115.328-133.12 36.864c-11.264 3.2-22.464-8-19.264-19.2l36.864-133.056z m312.768-307.84l112.256 112.256-277.44 270.848-109.056-115.392 274.24-267.648z m88.256-88.128c16-14.4 40.064-16 54.528-1.6l59.328 59.328c14.4 14.4 14.4 38.4-1.6 54.464l-56.128 56.128-112.32-112.192z" fill="#2b6de9" p-id="8180"></path></svg>